PathFileType	4	(X/Y/Z)	Patient4_TMGait_0pt2_01_left_02.trc.trc
DataRate	CameraRate	NumFrames	NumMarkers	Units	OrigDataRate	OrigDataStartFrame	OrigNumFrames
42.424242424242	42.424242424242	4	33	mm	42.424242424242	124	       141
Frame#	Time	Sacral			L.Shoulder			Chest			R.Shoulder			Neck			R.ASIS			L.ASIS			R.Thigh.Superior			R.Thigh.Lateral			R.Thigh.Inferior			R.Patella			L.Thigh.Superior			L.Thigh.Lateral			L.Thigh.Inferior			L.Patella			L.Shank.Superior			L.Shank.Lateral			L.Shank.Inferior			R.Shank.Superior			R.Shank.Lateral			R.Shank.Inferior			R.Heel			R.Midfoot.Superior			R.Midfoot.Lateral			R.Toe			L.Heel			L.Midfoot.Lateral			L.Midfoot.Superior			L.Toe			L.Elbow			L.Wrist			R.Elbow			R.Wrist			
		X1	Y1	Z1	X2	Y2	Z2	X3	Y3	Z3	X4	Y4	Z4	X5	Y5	Z5	X6	Y6	Z6	X7	Y7	Z7	X8	Y8	Z8	X9	Y9	Z9	X10	Y10	Z10	X11	Y11	Z11	X12	Y12	Z12	X13	Y13	Z13	X14	Y14	Z14	X15	Y15	Z15	X16	Y16	Z16	X17	Y17	Z17	X18	Y18	Z18	X19	Y19	Z19	X20	Y20	Z20	X21	Y21	Z21	X22	Y22	Z22	X23	Y23	Z23	X24	Y24	Z24	X25	Y25	Z25	X26	Y26	Z26	X27	Y27	Z27	X28	Y28	Z28	X29	Y29	Z29	X30	Y30	Z30	X31	Y31	Z31	X32	Y32	Z32	X33	Y33	Z33	

124	6.229285714286	811.559474707562	1006.064827308094	587.169214928143	987.199128836309	1434.835691135634	397.182450201917	1106.093012548595	1357.114057000659	543.101214728929	1044.174203762423	1427.319885271596	726.587032516092	989.247857483349	1490.362472520723	559.750263871451	1048.936045061451	931.512241744822	677.569283855132	1007.296310481968	959.744174851488	406.861858176631	1063.613227627023	725.923276702426	634.645753781562	976.931635299492	618.780450261194	694.981579655206	1040.307685295651	565.304699296757	606.402987858902	1029.347519505219	475.624535933516	608.402830685275	1074.045712198552	767.466874299265	426.719881381892	1009.818849339758	646.644109032480	345.078603809147	1107.691653525837	579.640352316193	399.288563835361	1124.238108162872	509.092030968871	392.501731731925	1100.057857652003	435.822204675002	378.035519778393	1017.356532096373	320.322400065306	316.377591902761	1087.759160149489	206.218946928418	366.126839631091	988.135938968315	390.777875731534	611.032135962871	903.967531118718	294.512136888174	670.298504555327	928.418517894513	199.809971522426	599.443734923209	771.212076482849	45.486860148554	563.700627070726	944.598525538683	96.642089540283	601.871462075909	853.905544927844	37.520779047671	638.646881790960	1062.578705499309	39.392418876110	630.242126092456	977.214254454589	38.518585825031	389.174964662465	1054.020854173038	39.547585722719	311.776666813038	1132.509129882971	106.735211941650	340.124679706919	1262.567013338627	64.201715270656	315.654524701657	851.485789421559	1117.214144319645	285.822793820192	800.919465345305	860.392918430882	308.552484633875	1202.009794997347	1130.836948666696	840.795435014678	1442.026515572982	1190.659269420415	779.777887526845	
125	6.252857142857	811.153052423418	1006.332177758401	584.806460066401	985.759127606305	1434.388205608477	393.008797815837	1105.597614427614	1357.199561964924	538.431434753031	1044.512906180455	1427.901789492992	721.954397637689	988.514484569527	1490.309989918693	555.612817695863	1048.716542998839	931.493856864236	674.666181800250	1006.324488098202	959.337373779154	404.072650803648	1061.813024787464	725.396323774972	632.436834509286	974.179278400646	619.041260039646	693.263933709385	1036.765413353724	564.823040579015	604.782219876661	1024.957082803852	475.503810307323	606.981271701301	1072.371066282675	765.993315636260	424.602860974625	1007.362821314105	645.422694709911	343.690109975957	1105.052547770957	578.169982016250	398.079659363169	1120.562603292854	507.657348796797	392.037698356248	1096.784951804453	434.645879766250	377.450527441492	1014.545709939732	318.993091459266	315.851156252224	1084.615629741663	205.156156181515	366.341782903802	983.803086677012	390.756235975208	609.993885245910	899.568763454938	294.805068198687	669.751999970402	923.809896467470	199.831886645120	599.114422522943	766.485850737139	45.489890148063	563.796686557337	939.892708734157	96.669391637563	601.950942834793	849.194967096497	37.482388138344	638.732211202492	1057.859114460302	39.406519842399	630.260111366183	973.585764865452	38.556289989067	389.456256020256	1050.659112768025	39.001355743489	312.294285800825	1129.442603448277	105.443293783001	340.960874266416	1259.297649837211	61.981228281513	317.007653750614	849.678851746779	1116.954716375012	282.084922500895	798.286399471973	860.285605905000	304.861944539136	1208.113575659938	1135.363156703602	834.798618488211	1444.255210892523	1203.636310567572	769.080787157646	
126	6.276428571429	810.957279436197	1006.555724746761	581.994617375360	984.558535171995	1433.919534823806	388.506919131088	1105.213656968483	1357.330083713596	533.567823065214	1044.752095614528	1428.523795301993	717.050767761706	987.852158156718	1490.278173408611	551.126654545520	1048.686327962860	931.525714978702	671.538289762415	1005.743732734363	958.901382872942	401.049976535071	1060.221498501153	724.909229859883	630.067638150141	971.573041566063	619.356463544967	691.364844835312	1033.431855048060	564.360949504952	603.081401315183	1020.780030070832	475.389967821085	605.509611073405	1071.120995175216	764.484130532354	422.103830669805	1005.417989028697	644.094123691544	341.975791411627	1102.936113567330	576.594026468666	396.609962345597	1117.449931240993	506.124613266429	391.293117104254	1093.910381209889	433.367568156412	376.607299803832	1011.812485380608	317.733896741359	315.126529362885	1081.202952474114	203.977012081813	366.352013813147	979.607447657033	390.749234721625	608.892021826265	895.224782143717	295.187797279676	669.147311459490	919.264159418314	199.899226110119	598.770422656608	761.787275858442	45.574582799730	563.887274829082	935.226673020180	96.715735938601	602.028752079730	844.510685741806	37.477899833476	638.807827344739	1053.153634789683	39.405452166626	630.284879878311	969.236912426873	38.679182002207	389.685869924055	1046.451100381928	38.466241018686	312.631312006927	1125.719668542676	104.010414682201	341.535290937683	1255.294575817347	59.388756482812	317.824784255361	848.312079089463	1116.534316478648	278.120514237199	796.231627347941	859.993723380778	301.088764574255	1213.696650329451	1139.866767592911	828.716409636919	1445.894664794911	1216.103371442574	758.856276430841	
127	6.300000000000	810.938476597070	1006.747626986569	578.727487271471	983.587435608068	1433.480303610057	383.741919063189	1104.937804940829	1357.504162672372	528.546307738238	1044.917482795050	1429.146464568374	711.938806966160	987.272083803249	1490.278209383531	546.362619744559	1048.807720633445	931.605752397945	668.131350641692	1005.495350048434	958.481479281445	397.736138207712	1058.793786163421	724.469247348301	627.483659582767	969.089989331857	619.733214940328	689.245122361869	1030.283008458184	563.929092999479	601.250366859374	1016.808123606825	475.291067363787	603.943515540748	1070.317220272950	763.075011090083	419.201469541556	1004.053233960142	642.729977757747	339.921047210407	1101.419654684377	575.019358618415	394.856597027333	1115.015309852340	504.597134024322	390.269230899603	1091.571105770518	432.062385637713	375.535202999131	1009.368128072164	316.587067483746	314.185314595899	1077.729557199686	202.755153795765	366.185735829904	975.537284600711	390.764957287346	607.690863054547	890.930410775147	295.672346639943	668.455574929100	914.775550581452	200.020946793350	598.392109308140	757.106737335198	45.754419373993	563.967609431459	930.589746378294	96.781445749179	602.093502449982	839.842400244307	37.519706202634	638.869001664194	1048.450765264257	39.386584357937	630.316339253790	964.461639729692	38.847376490049	389.837911457802	1041.722065222144	37.971105222637	312.798831494341	1121.582364950830	102.562528598942	341.882904003573	1250.850677880343	56.665085951346	318.202075482608	847.381866071261	1116.010614331171	273.948889132252	794.806549919334	859.563872903890	297.222197606463	1218.795407025747	1144.249041603839	822.539590327861	1447.118428611795	1227.880004602494	749.137084433839	
